<?xml version="1.0" encoding="utf-8"?>
<!-- Generator: Adobe Illustrator 24.0.1, SVG Export Plug-In . SVG Version: 6.00 Build 0)  -->
<svg version="1.1" id="Layer_1" xmlns="http://www.w3.org/2000/svg" xmlns:xlink="http://www.w3.org/1999/xlink" x="0px" y="0px"
	 viewBox="0 0 1080 1080" style="enable-background:new 0 0 1080 1080;" xml:space="preserve">
<style type="text/css">
	.st0{fill:#9473B2;}
	.st1{fill:none;}
	.st2{fill:#FFFFFF;}
	.st3{clip-path:url(#SVGID_2_);}
	.st4{clip-path:url(#SVGID_4_);}
	.st5{fill:#00C0F3;}
	.st6{fill:#F8B4A4;}
	.st7{fill:#B565A8;}
</style>
<g>
	<g>
		<defs>
			<rect id="SVGID_1_" width="1080" height="1080"/>
		</defs>
		<clipPath id="SVGID_2_">
			<use xlink:href="#SVGID_1_"  style="overflow:visible;"/>
		</clipPath>
		<g class="st3">
			<g>
				<defs>
					<rect id="SVGID_3_" x="-5" y="-5" width="1090" height="1090"/>
				</defs>
				<clipPath id="SVGID_4_">
					<use xlink:href="#SVGID_3_"  style="overflow:visible;"/>
				</clipPath>
				<g class="st4">
					<defs>
						<rect id="SVGID_5_" x="-5" y="-5" width="1090" height="1090"/>
					</defs>
					<clipPath id="SVGID_6_">
						<use xlink:href="#SVGID_5_"  style="overflow:visible;"/>
					</clipPath>
					<g style="clip-path:url(#SVGID_6_);">
						
							<image style="overflow:visible;" width="2272" height="2272" xlink:href="862D025E8B019461.jpg"  transform="matrix(0.48 0 0 0.48 -5.28 -5.28)">
						</image>
					</g>
				</g>
			</g>
		</g>
	</g>
</g>
<g>
	<g>
		<path class="st2" d="M323.6,546.3c1.9-2.9,2.8-5.8,6.3-5.4c7.2,1,14.4,1.8,21.7,1.4c2.1-0.1,3.4-1.1,4.3-2.7c0.8-1.4,1.4-3,2-4.6
			c7.2-19,14.4-38.1,21.6-57.1c1.3-3.5,3.1-6.9,4.9-10.2c1.2-2.2,2.6-4.4,5.6-4.6c2.1-0.1,3.5,0.6,4.4,2.4c0.2,0.5,0.3,1.4,0,1.9
			c-11.1,21.1-18.5,43.7-26.5,66c-0.4,1.2-0.9,2.5-1.3,3.7c-0.6,1.9,0.2,3.2,2.2,3.4c1.9,0.1,3.7,0,5.6-0.1
			c10-0.6,20.1-1.2,30.1-1.7c0.9,0,1.7-0.1,2.6-0.1c2.9-0.1,4.2-1,5-3.7c8.5-27.7,18.4-55,29.3-81.8c5.3-13.2,3.1-6.1,8.8-19.1
			c1.2-2.9,2.9-5.5,5.6-7.3c1.9-1.3,3.9-1.4,5.3-0.2c1.2,1,1.5,3.1,0.6,5c-2.7,5.7-5.5,11.4-8.2,17.1c-14,30.3-17.4,41.6-27.8,73.3
			c-1,3.1-2.1,6.1-3.2,9.1c-0.3,0.8-0.6,1.6-0.8,2.5c-0.7,3,0.4,4.4,3.4,4.9c1.6,0.3,3.2,0.9,4.6,1.6c1.1,0.6,1.5,1.7,1.2,3
			c-0.4,1.5-0.8,2.8-2.5,3c-2.1,0.3-4.3,0.7-6.5,0.7c-3.5,0-5.1,2.2-6,5.1c-1.3,4.1-2.5,8.2-3.7,12.3c-8.4,28.3-16.9,56.6-25.4,84.9
			c-0.5,1.6-1.4,3.2-2.4,4.5c-0.9,1.2-2.5,1.7-4,0.9c-1.5-0.8-2.6-2-2.4-3.8c0.2-2.2,0.6-4.4,1.2-6.6c6.8-22.8,13.6-45.6,20.4-68.3
			c2.2-7.5,4.6-14.9,6.9-22.4c1.5-4.7,0.8-5.5-3.9-5.2c-8.5,0.6-17.1,1.1-25.7,1.7c-4.6,0.4-9.1,1-13.7,1.5
			c-1.2,0.1-1.7,0.7-2.2,1.8c-7.2,19.4-12.8,39.2-18.2,59.1c-0.4,1.5-0.8,3.1-2.4,3.4c-1.4,0.3-3.5,0.6-4.4-0.2
			c-1.5-1.2-1.8-3.5-1.3-5.5c1.1-4.7,2.1-9.4,3.5-14.1c3.7-12.3,7.7-24.4,11.5-36.7c0.7-2.4,1.1-4.9,1.8-7.6
			c-1.5-0.2-2.5-0.3-3.5-0.4c-5.3-0.1-10.6-0.2-15.8-0.4c-1.3,0-2.6-0.5-3.8-0.7C326.3,549.5,324.4,548.7,323.6,546.3
			C323.6,545.4,323.6,547.2,323.6,546.3z"/>
		<path class="st2" d="M571.3,588.8c-2.2,0.9-4.4,1.8-6.4,2.7c-7.5,3.4-17.8-0.2-22-7.5c-1.2-2-2.4-4.1-3.5-6.1
			c-1.3-2.2-3.2-2.9-5.3-1.3c-3.6,2.8-7.1,5.8-10.3,9.1c-2.9,3-5.1,6.7-7.9,9.9c-1.4,1.6-3.5,2.7-5.5,3.6c-1.4,0.7-2.7-0.4-3.7-1.5
			c-2.1-2.4-1.9-5.3-1.6-8.1c0.1-0.9,0.2-1.7,0.3-2.8c-0.6,0.3-1,0.4-1.3,0.6c-13,8.2-25.8,16.5-38.9,24.5
			c-5.2,3.2-10.7,6.2-16.7,7.5c-3,0.6-6.3,0.9-9.4,0.5c-7.1-0.9-11.4-6.1-12.1-13.5c-0.8-7.5,0.8-14.5,3.6-21.4
			c4.6-11.1,10.7-21.1,18.9-29.9c3.9-4.2,8.9-6.9,14.9-7.2c5.5-0.3,9.6,4.8,9.2,10.9c-0.4,4.7-2.7,8.6-5.3,12.3
			c-7.2,10.3-16.8,17.5-28.6,21.7c-1.8,0.6-2.6,1.6-3,3.3c-0.8,3.3-1.5,6.7-0.8,10.1c0.8,3.7,3.2,5.9,7,5.5c3-0.3,6.2-1,8.9-2.4
			c7-3.6,13.9-7.4,20.6-11.6c11.5-7.1,22.8-14.6,34.2-21.9c0.6-0.4,1-1.2,1.1-1.9c1.6-6.1,1.6-6.8,2.2-8.3c0.7-1.8,1.6-3.7,2.6-5.3
			c2.1-3.1,5.6-3.2,7.3-0.3c0.5,0.8,0.5,2.1,0.3,3c-0.5,2.2-1.5,4.2-2,6.4c-1.4,5.5-1.2,5.8-1.8,7.3c-0.3,1.7-0.7,3.4-1.2,5.6
			c1.5-1.5,2.6-2.8,3.8-3.9c3-2.8,6-5.9,9.3-8.3c2.3-1.7,5.1-2.7,7.9-3.5c3.6-1,8,1.3,10.4,5.1c0.8,1.4,1.3,3,2.2,4.3
			c1.4,2.1,2.8,4.4,4.7,6.1c2.4,2.1,5.3,2.5,8.5,1.4c5.5-1.9,9.8-5.6,13.8-9.6c0.5-0.5,0.7-1.4,1-2.2c6.7-22.3,13.1-44.7,20.3-66.8
			c4.2-13,9.5-25.7,14.4-38.4c0.6-1.7,2.6-2.6,4.6-2.3c1.8,0.3,3.1,1.5,2.9,3.5c-0.1,2-0.5,4.1-1.2,5.9c-9,23.2-16.4,47-23.9,70.7
			c-3.1,9.9-5.7,19.9-8.6,29.8c-2.2,7.8-4.8,15.5-6.7,23.3c-3.4,14.3-6.4,28.6-9.6,43c-0.7,3.3-1.2,6.6-1.9,9.9
			c-0.5,2.2-2.5,3.6-5,3.5c-1.7-0.1-3.2-1.9-3.2-4.2c0.1-2.5,0.5-5.1,0.9-7.6c2.8-17.5,6.7-34.8,11.6-51.8
			C571.2,589.8,571.2,589.3,571.3,588.8z M441.2,582.8c0.3,0,0.5,0.1,0.7,0.1c0.6-0.2,1.2-0.3,1.8-0.6c8.9-3.9,15.5-10.2,20-18.9
			c0.6-1.2,1-2.5,1.3-3.9c0.5-2.1-0.7-3.3-2.8-2.8c-1.4,0.3-2.9,0.9-3.9,1.9c-2.4,2.4-4.7,4.9-6.8,7.6
			C447.4,571.3,444.1,576.9,441.2,582.8z"/>
		<path class="st2" d="M670.5,589.2c-4.6,2.9-9,5.6-13.4,8.4c-10.3,6.5-20.3,13.5-31.3,18.8c-4.8,2.3-9.8,4.1-15.3,3.9
			c-8.3-0.3-13.8-5.3-14.7-13.6c-0.8-7.4,0.7-14.4,3.5-21.2c4.6-11.2,10.8-21.4,19-30.2c3.9-4.2,8.9-6.9,14.9-7.2
			c5.5-0.2,9.6,4.8,9.1,11c-0.4,4.7-2.7,8.6-5.3,12.3c-7.2,10.2-16.8,17.4-28.6,21.7c-1.7,0.6-2.5,1.5-2.9,3.2
			c-0.8,3.4-1.6,6.8-0.8,10.3c0.8,3.6,3.2,5.8,6.8,5.5c3.1-0.3,6.3-1,9.1-2.4c7.5-3.9,14.9-8.1,22.2-12.6
			c11.2-7,22.3-14.2,33.4-21.4c0.6-0.4,1.2-1.1,1.6-1.8c3.7-6.7,8.1-13,13.4-18.5c4-4.2,9-7,15.1-7.2c5.4-0.2,9.4,4.8,9,10.9
			c-0.3,4.7-2.7,8.6-5.3,12.3c-7.2,10.3-16.8,17.5-28.6,21.7c-1.7,0.6-2.6,1.6-3,3.3c-0.8,3.4-1.6,6.8-0.8,10.3
			c0.8,3.5,3.1,5.7,6.7,5.4c3.1-0.3,6.4-0.9,9.1-2.4c8.2-4.4,16.3-9,24.2-13.9c10.3-6.4,20.5-13.1,30.7-19.7c0.8-0.5,1.7-1,2.6-1.5
			c1.7-1,3.7-0.9,4.7,0c1,1,1.3,3.9,0.3,5.3c-0.7,1-1.6,1.9-2.6,2.6c-15.6,10-31.1,20.2-46.9,29.9c-5,3-10.5,5.2-16.1,7.1
			c-2.9,1-6.3,1-9.4,0.6c-7.1-0.9-11.4-6.1-12.2-13.5c-0.6-5.6,0.3-11,1.7-16.4C670.4,589.9,670.4,589.6,670.5,589.2z M610,583
			c1.1-0.3,1.9-0.5,2.6-0.7c6.2-2.4,11-6.6,15.3-11.6c2.7-3.2,5-6.7,6-10.8c0.6-2.5-0.5-3.9-2.9-3.2c-1.8,0.5-3.6,1.5-4.9,2.7
			C619.3,566.2,614.5,574.3,610,583z M682.7,583c1.1-0.3,1.8-0.4,2.6-0.7c6.4-2.5,11.3-6.8,15.6-12c2.5-3,4.6-6.3,5.6-10.2
			c0.7-2.8-0.6-4.3-3.3-3.3c-1.7,0.6-3.4,1.6-4.7,2.9C691.9,566.4,687.1,574.4,682.7,583z"/>
	</g>
</g>
</svg>
